<svg xmlns="http://www.w3.org/2000/svg" viewBox="0 0 900 360" width="900" height="360" font-family="'Comic Sans MS','Segoe Print','Bradley Hand','Chalkboard SE',cursive,sans-serif" role="img" aria-label="Weekly npm downloads for @curio-data/pi-intelli-search">
<rect width="900" height="360" fill="#faf6ee"/>
<text x="66" y="28" font-size="18" fill="#2e2a25">weekly npm downloads &#183; @curio-data/pi-intelli-search</text>
<text x="876" y="28" text-anchor="end" font-size="13" fill="#2e2a25" opacity="0.65">4,507 over 17 weeks</text>
<path d="M66.3771959169954 306.4241092852503 C227.8629497431591 305.7895278304182, 389.76082843199373 304.51645988636835, 875.6508183511346 306.1726276210695 M65.7145871521905 306.11642338793723 C245.48839151673022 304.8193928001635, 424.62807741966105 304.5687368498556, 875.7446353139355 306.3312389842793" stroke="#c9bfae" stroke-width="1" fill="none"/>
<text x="54" y="310" text-anchor="end" font-size="13" fill="#2e2a25" opacity="0.75">0</text>
<path d="M65.87439183399081 240.96821857050062 C228.60589948631824 243.2630556608364, 390.40165686398745 242.47691977273672, 876.1816367022693 240.4652552421391 M65.86917430438102 240.7928467758745 C262.5367830334604 241.76278560032696, 458.816154839322 241.26147369971127, 875.9292706278711 241.22247796855868" stroke="#c9bfae" stroke-width="1" fill="none"/>
<text x="54" y="245" text-anchor="end" font-size="13" fill="#2e2a25" opacity="0.75">250</text>
<path d="M65.37158775098622 175.51232785575093 C227.58884922947738 173.6085834912546, 389.28248529598125 173.3093796591051, 876.712455053404 176.51788286320865 M66.02376145657152 176.34927016381175 C279.5851745501906 178.70617840049044, 493.884232258983 178.8342105495669, 876.1139059418067 176.113716952838" stroke="#c9bfae" stroke-width="1" fill="none"/>
<text x="54" y="180" text-anchor="end" font-size="13" fill="#2e2a25" opacity="0.75">500</text>
<path d="M66.62878366798162 111.81643714100123 C228.33179897263645 111.0821113216728, 389.9233137279749 111.26983954547346, 875.4832734045386 110.8105104842782 M66.17834860876202 111.02569355174899 C297.51356606692076 108.52157120065391, 528.0723096786439 108.39894739942252, 876.2985412557423 111.00495593711734" stroke="#c9bfae" stroke-width="1" fill="none"/>
<text x="54" y="115" text-anchor="end" font-size="13" fill="#2e2a25" opacity="0.75">750</text>
<path d="M66.12597958497703 46.36054642625153 C227.3147487157956 50.315639152091, 390.56414215996864 49.23029943184182, 876.0140917556732 46.86313810534775 M66.33293576095254 45.70211693968624 C314.56195758365095 45.46496400081739, 563.1403870983049 45.09168424927815, 875.6031765696779 45.89619492139667" stroke="#c9bfae" stroke-width="1" fill="none"/>
<text x="54" y="50" text-anchor="end" font-size="13" fill="#2e2a25" opacity="0.75">1000</text>
<path d="M75.35869910554347 60.208265738137236 C75.35869910554347 60.208265738137236, 75.35869910554347 60.208265738137236, 75.35869910554347 60.208265738137236 M75.35869910554347 60.208265738137236 C75.35869910554347 60.208265738137236, 75.35869910554347 60.208265738137236, 75.35869910554347 60.208265738137236 M75.370058125561 67.79967944528396 C77.89090245928614 66.56002345952768, 81.03710225142336 62.835786003763126, 84.93699484840513 59.64105208207893 M76.17585820902688 70.17550842649723 C78.59372533309642 66.61711753951003, 81.10622962659599 62.3005053863958, 83.35209810231359 60.49022149712818 M75.74218915663509 75.81683886278871 C78.571783727493 70.73134922361275, 88.36192791147354 66.17531662619483, 93.9384083574236 58.39152858055819 M74.11579052898882 77.92868374981437 C79.98157421934697 72.58692328288078, 88.73242332290437 65.52799823330658, 90.86400926891422 61.07312714423675 M74.23203542201861 89.26607363102508 C80.76625871536689 83.27572320643344, 85.1764945827596 74.02717482417476, 96.69092993541489 60.87960246632149 M76.07697575192049 88.38073832438809 C78.87266355650742 82.04846461203348, 84.93425449646112 74.59446927222291, 97.73444096381644 59.2004544377168 M76.80955678200662 96.87980005270383 C83.50630385889305 84.57096931473752, 95.42366640335885 72.06289007168564, 103.1361838429984 64.01015406050396 M73.89076202618271 95.73814167673281 C84.59551920304875 88.10755481016098, 95.11168562187461 76.31014803460386, 103.89428753683384 61.43355919089776 M72.87679181081788 108.4620342411062 C82.50662270441894 96.30870581858964, 92.52689808269515 86.21112858766446, 103.26953329746883 73.00182924316903 M74.88786834591613 105.13745996895788 C82.45098231636862 98.20471830217167, 88.81133184490517 91.26092368971578, 103.95802231268297 73.05508264517118 M77.50570095767112 114.61562043451346 C87.22415081699495 106.93845300919806, 95.43574112478363 95.4843078303391, 102.25282591295 79.59982957537024 M73.89217776776137 115.23772030067272 C80.99380670922707 107.87152316400746, 88.30399693936846 99.80752656641481, 104.49859520040955 80.12910453541873 M77.62566654678511 125.55473099620687 C83.1934041434315 115.62238192737266, 88.81867085918265 111.51055992345158, 102.23224088866067 92.02028054538883 M75.62698741085904 124.31416070898669 C84.76577312470015 111.56501407394178, 97.67668391638301 101.31888713107803, 104.0840298816542 88.72676133624978 M74.21099277737859 131.91736641446764 C81.84943716650572 124.38899319259188, 89.46057076548408 118.91396788439462, 103.08637929881958 100.21563576650605 M75.12125845684979 133.35198016850913 C86.09572274456629 122.35628629812423, 96.27122758052836 107.9757173964891, 104.24426410055754 99.4729004597737 M76.46840572367032 143.57785530257706 C85.82647456731064 133.29176939647883, 90.17616029790813 126.87850178127405, 102.61376409264548 108.68717697700316 M74.11586614987422 143.14008859134947 C85.492466223661 129.472674796262, 95.37304973517257 117.26573660905709, 104.8773996637602 107.63983025559986 M72.68061236386953 149.70464481859358 C87.94566780979426 138.61474568520762, 97.51563073366201 124.61818510227178, 102.72034009435713 115.2975140401614 M74.12590882556347 150.61014724689426 C82.51605358565868 144.90987244162937, 87.02136551509994 137.37266639268879, 105.6559524404028 118.24107001083765 M75.769564464214 160.591638986244 C84.2202317346368 154.39592331140767, 94.4994303984569 139.12109056830693, 103.60697400317326 126.08308494426203 M75.22272179507718 160.94915708269843 C85.07525922232622 148.89709705519005, 96.11101536351589 137.1072606579583, 104.43310236212596 128.12509995009643 M73.42031275291293 169.94244121358682 C84.44047762366584 159.26507487463937, 94.6666771636018 144.89045724642455, 104.61301342230314 133.3119462223635 M75.37648151904642 171.16495124314864 C82.44760354126252 162.8225705504043, 87.0881404243526 156.42358597877393, 105.30500245206082 134.3144016552628 M73.64427080418514 178.70169261390328 C86.69644020263424 172.954925850703, 89.7582868823138 162.03781462560082, 107.77955074298453 145.31511127319266 M75.23821949161189 179.1987833903542 C84.73477457725804 170.02222578207773, 93.01691890492961 157.7305447950968, 105.392792708867 143.1180463863917 M75.62277406724931 191.1128624254746 C89.99652138752947 173.7376364869818, 102.0696195885883 163.10851295489164, 103.97327731842663 154.7707928798079 M74.20213126941414 189.2643681239245 C80.7484118010456 180.6411140585531, 87.94352574432695 173.97715099249257, 106.1852042806756 153.69718760036972 M75.89457986632425 199.53074801158203 C85.32463987673503 182.74459593416117, 99.34214455832647 168.50883228370384, 106.44974734784824 162.53574153049055 M74.81182647159386 196.9416309809689 C81.77495510881351 187.85767994940215, 90.11624286205735 179.38356095754187, 106.3205733491273 164.17764927180622 M74.54336740062867 205.2339748605069 C83.15604934396264 202.73706564916904, 91.47985682343366 189.08370645523064, 103.69693690546809 173.70303583852186 M75.16657877979164 207.27045843609685 C81.85607701393354 200.58337843067633, 89.44380578282855 191.2514966834219, 106.64915015836267 170.98896631281062 M75.38523774438131 215.23749658553038 C84.97042850087739 202.53483878431624, 92.89162179696625 195.2906974308816, 107.62274394050493 182.41458254218304 M76.32757593814809 216.84444790141765 C79.96258326978914 209.85070167047954, 88.03663656376953 201.41865286091775, 105.63934901502236 180.95813457299226 M74.15621384680097 227.10509492493372 C85.84100730439914 214.51242280082087, 97.69509764267843 199.1014616673932, 105.7424882771775 192.67361650475533 M74.72416975330387 225.90465772654068 C83.66670547955727 213.26949069286812, 94.99626724162178 202.38468581410737, 103.78399828824698 190.4033608394605 M76.69974053210638 231.7618797419982 C82.25823365021662 220.1843621297122, 96.51262879790868 210.55907516082408, 103.36641161470459 197.15720071452 M75.5601260943996 235.43335719857532 C84.60770134305731 221.48324704175107, 95.99807091699768 207.43720243604673, 105.00659040967719 200.22781283682474 M75.15418449951625 246.3067890250051 C82.3557138226424 231.91475591906905, 89.49069791924349 221.176194267132, 105.78717752730489 210.02872628475833 M76.21987489307588 244.247776542131 C81.88476369110575 233.24633397459056, 91.98001695970787 222.68199796400776, 106.06753187345356 210.01336922719437 M72.79639335223987 250.07037930701284 C85.49427971789108 245.5302438715676, 92.49852087897662 232.4425818329788, 106.4673714641972 215.75041245375155 M74.33081917246386 251.33914733909427 C83.42217132477826 240.85608546435435, 91.50945155163103 231.4732902218875, 103.97039323621676 218.11436961017876 M75.60495948151502 262.4461639867482 C80.36460682426993 253.012389343812, 90.91909485424843 247.1766472688094, 105.88305977859078 225.1410970045581 M75.54534893122319 261.98529084952 C85.822109631167 246.92451328823358, 97.68798547601659 235.77958275685697, 104.02421814609794 226.99665494266446 M72.38407424055087 269.1748558472697 C86.18007968791203 260.99168696566755, 93.91722419573345 249.88041316460533, 103.0870536117233 233.2075745859048 M74.88344531748491 271.3161105302949 C79.90234528205794 262.5150034804384, 87.972170048012 257.19775287360005, 106.62553722675663 237.35015585970643 M74.32679182856623 282.1757053768587 C82.63119324811748 270.23395718494027, 86.8700412849324 268.68556512287086, 105.83276306680409 247.42883923085017 M76.51469451288972 279.42618035602834 C82.76264568624107 269.1163526722824, 93.51286461035595 260.89909769407905, 106.60097225132404 246.6543851931913 M73.85858831977981 287.6042911887962 C83.39394995597598 278.95780626080597, 89.02419800245224 268.78574395864524, 104.13746109305185 251.58742267767542 M74.8205967615782 287.7137852388296 C81.1866814045002 282.12868861040505, 87.48913198265275 276.46375013774247, 103.98925002644074 255.29102629272842 M74.82486166341042 296.6650200213636 C86.48398826263802 287.2784291248039, 94.60803103443844 274.02306324221314, 107.1258425146854 261.82718478966177 M73.80081637019103 298.9746710283081 C85.36788269919869 288.45346679968543, 93.53138684943414 275.54863907290854, 106.10351142124743 262.8829734454271 M75.33449071266723 305.6689171576194 C85.17319121289846 293.454133299744, 98.42097618049047 286.2555010789535, 107.21752403092337 275.4658135550905 M74.13549073685927 307.74108493135043 C86.43870258306589 295.3760577338982, 94.9317793769314 285.3545889183312, 104.93756136738462 274.38808187589683 M85.85186648566466 304.0537402033942 C94.27591649179242 296.16459780442847, 98.7902887850991 285.96163761466704, 104.31454421598465 279.8073250872429 M83.49601161211919 305.58313929011547 C92.77893233537758 297.9067080402303, 98.97958879598032 286.82360518971427, 105.57211885899306 282.1929177462469 M89.07838517974481 308.8566048148656 C97.70627959339458 301.95442163116854, 99.89555558030465 299.7038183288986, 105.98886351908789 290.9545636244001 M92.64526811323479 306.86268730960876 C95.20164798755094 303.511827179945, 97.91852666531501 299.5879744337088, 103.58106695271329 290.2065081560867 M100.23390967960047 307.4987200166165 C100.42313908455786 304.4697929231432, 104.11215895759406 302.8982068247027, 104.42286221528887 301.385786383448 M99.31548910068858 306.01895536026655 C101.40969552196329 304.9022680074699, 102.32799066335828 302.56439071822655, 104.72999761658251 301.1187422285209" stroke="#8b3a2e" stroke-width="1.4" fill="none"/>
<path d="M73.76831220592207 60.23496265284717 C81.08418888598023 61.89458065585794, 84.82989230248857 59.85455452756586, 106.45176573844955 61.09101952187717 M73.71495110764003 61.441387480534615 C84.20080938748576 60.637461898773275, 93.7160627707861 61.51040836974915, 103.87074906846837 59.83534286025912 M103.63004190922958 59.94602692407147 C106.30350889968165 137.13067687598516, 106.48799157134988 210.47714328810153, 102.54583677517277 306.9691396527444 M105.56597216849907 60.8126555142931 C108.92892049619218 111.99563599848726, 109.10347953943925 162.79490471726834, 103.90331971166951 304.90392746219754 M105.06933214517639 307.07903863303363 C96.181837155957 307.8431276759524, 87.06950581725029 308.95140553325604, 76.58105056489653 305.36828870885074 M103.60327855965451 306.20641190651804 C97.75621041491189 306.6800426584297, 89.16332985409261 307.2368632596546, 76.00348863973117 304.8765990519896 M77.1255309604457 306.3847432229503 C79.73000876466003 228.27494607569344, 76.76944013967623 147.36078015880526, 76.97027819874529 59.031269902648674 M75.43341795281775 307.22317020578896 C72.54307587539893 210.95330948439366, 71.3516364089403 117.69230958423661, 74.61334811521476 61.70755768856496" stroke="#8b3a2e" stroke-width="1.6" fill="none"/>
<path d="M122.49570761916328 220.43501150075053 C122.49570761916328 220.43501150075053, 122.49570761916328 220.43501150075053, 122.49570761916328 220.43501150075053 M122.49570761916328 220.43501150075053 C122.49570761916328 220.43501150075053, 122.49570761916328 220.43501150075053, 122.49570761916328 220.43501150075053 M120.90199414044018 231.1718384990256 C126.38216668906584 227.12721872613977, 128.20573691088495 225.35131884050472, 132.22207793566653 219.89544411656857 M121.75793591259844 229.78712235028127 C125.04215140324555 227.48740449701668, 127.48692418770999 225.29393126763202, 130.05644454824528 220.15619990503362 M124.120556948293 240.317196820787 C130.70671657688536 233.59409178204712, 136.6037042350036 223.88248808257111, 139.7252432332509 221.0065064790758 M121.97309188270569 239.03101585565025 C125.87529204846793 232.87290925688737, 131.4603798866562 227.65633501994188, 138.88844429665662 219.88503813670079 M120.36940354483991 246.47141717781236 C130.3044678529945 240.65968695717424, 140.23701386640792 230.9640623482718, 144.6350929698592 217.88212496699478 M121.77183392972543 248.18852598673587 C129.7962075720725 238.64723151309641, 137.65533450347374 232.54525212038342, 146.60252250299433 219.67311893362265 M123.38720441842544 254.81754446385384 C129.80576539195144 246.77147623627175, 133.6795691382343 238.96482390108582, 152.07181676732193 224.25573092132856 M124.23194386996421 255.23560969188765 C134.35630251572698 245.72763284388634, 145.62516333769048 232.46399160573637, 152.7062710767966 222.99970357345467 M123.80967123897138 263.7935974777395 C130.1820018956907 256.61228051981766, 139.86040881477538 248.14621646308808, 150.23808375113694 230.2094650951874 M123.405927196586 265.6649274935665 C133.147900335942 252.9454096586303, 143.58022247480554 242.02987323141528, 153.29132093555344 232.0215940641899 M123.22075786389968 274.4362278307976 C129.6964773139622 263.0545966882738, 138.26475165081143 251.00587002562153, 152.06261775613115 238.37057861017172 M122.75498080900496 275.9120110079834 C130.4267161841835 267.08096120854964, 135.94931427489635 259.3301865343664, 151.93268192483396 239.23806606356163 M123.37141033813214 284.6619699468562 C125.98265526551668 275.97082924856346, 137.53950925610758 268.3309249336638, 151.0492945147264 252.32455120260968 M121.78961801288506 282.9646379450993 C130.82817460836299 274.77111481558734, 136.3611179763991 266.1034068306209, 153.4597150065522 250.7321121252808 M124.39831689409067 292.54849106224333 C128.44736329559038 283.8192102084104, 136.31510480549423 275.74612339486345, 153.0564819468446 257.3492454213294 M122.2102935201404 292.47220710862507 C134.13739610632447 280.9302127875218, 142.99690405937602 268.46732511496396, 154.15734754887222 258.2327208968083 M120.04265795169717 302.6158412257872 C134.35286372386489 295.0872801503353, 138.4274970762286 281.605134599263, 150.51579015990762 265.6961566276589 M123.54802844893506 301.3551133960217 C130.63554316521802 294.0362489288001, 136.6271475286022 286.23814918177715, 153.90669832620813 268.22425211935507 M124.46126932130706 305.8247362372566 C134.89618058468176 296.3933039658914, 145.8691974195756 285.03662693001456, 153.6508214488374 274.87166299542645 M127.89744852661666 306.63115573694074 C136.49088459132406 296.5817272285375, 144.4556759807588 286.9731758610599, 151.82570251922402 278.55581162788206 M132.94844773986114 303.93316093092506 C142.16219262810125 298.8541172898022, 149.69984726860815 291.0077072127899, 152.6959202960557 288.91827551096014 M134.06046462586818 306.10026537678857 C140.32136779641036 297.82167535086785, 149.5764859887573 291.5318568786903, 152.40973671483385 286.5506263511003 M142.93571592667962 307.0946915336369 C144.96350662767588 304.1393187965309, 149.11623762087183 303.2510911847364, 154.34863035680536 294.9657763980545 M142.6082537523553 306.86807472444565 C145.89924017040158 302.19041955911325, 150.20657865232957 299.48496344062335, 152.28875473110745 295.60944833492226 M151.15508553219084 306.6039018316109 C151.59106831615483 306.0240635252967, 152.25186236659687 305.52146803911023, 152.62880279411607 305.0496562619447 M151.31604621239063 306.3368957555302 C151.37336423939036 305.92161238683576, 151.86963753134216 305.67334001494845, 152.42534769013568 304.86833202515123" stroke="#8b3a2e" stroke-width="1.4" fill="none"/>
<path d="M119.70126620102674 218.32078976165502 C131.25174977874164 220.7739813534029, 134.63703121564845 220.39395087039546, 149.90843257721076 218.31952277552335 M121.88901158636436 219.97828539395704 C131.6378070304981 220.35055456817665, 144.25423009532886 220.3689921176485, 152.14724646223272 219.1045666703023 M150.37657103355536 219.8309489859268 C153.16336405908905 248.78959558775648, 154.4244909051641 276.31546764582396, 154.8419278901399 308.8717731786892 M152.36679242265905 220.80762240970506 C152.14928299177242 244.08725601151585, 153.89636339235855 268.32376303022727, 153.51338335586274 306.69855908537284 M151.29559338505874 303.7588784052059 C141.91155511332238 304.5469215042975, 134.26520776718417 304.83991233781836, 123.98279428649694 307.7630034936592 M151.3351975352832 307.4908138909377 C144.48302979778938 306.2671419250308, 137.92741424153942 306.41676595979317, 123.55897204047069 306.43936556065455 M121.13365674186498 303.0445865644142 C125.59544996593316 290.13432495446875, 125.40489948962052 272.25460667185484, 122.91390350628645 219.53615195285528 M121.9885476029478 307.48134189331904 C123.00219742488619 275.41562424514444, 122.31576895248648 246.10881248457358, 121.32777597969398 221.5743158080615" stroke="#8b3a2e" stroke-width="1.6" fill="none"/>
<path d="M170.11344648756798 288.3287402508272 C170.11344648756798 288.3287402508272, 170.11344648756798 288.3287402508272, 170.11344648756798 288.3287402508272 M170.11344648756798 288.3287402508272 C170.11344648756798 288.3287402508272, 170.11344648756798 288.3287402508272, 170.11344648756798 288.3287402508272 M170.80836761496974 298.446639500927 C171.6498694481538 295.95856883622014, 175.78862678364334 292.5413596420283, 179.1843537556746 288.63236371281835 M169.6973010688649 297.0033924737906 C172.99005804365748 294.29663531958505, 174.91347743667043 290.6737737847769, 178.5200584557646 288.2339417567784 M172.32359606574528 307.2392473464715 C173.51723741291764 301.8398253920146, 178.3719852060191 296.59525657554974, 185.33674943487256 286.0431769452796 M169.65506456221692 305.55504052917235 C175.50351179940225 297.95798181351086, 184.0719217113758 290.9611524041248, 186.73755065019338 287.118641696851 M180.20415134134169 309.04193832961255 C185.55013205445485 300.76680179914644, 191.97365095197864 294.11125558133375, 192.40392733009787 289.30634003535425 M178.16407178121085 307.36149125409656 C185.42050711822208 300.9619911318508, 189.23235149477918 293.48461706616575, 195.2952753679666 288.5674759972147 M185.53494007641075 309.06395151734347 C193.2923204626584 303.5147936254025, 196.49612590862523 292.8294675959297, 201.48818004643036 286.16829076961653 M187.1432137353122 305.0417403493821 C190.1848625162627 304.17646554438284, 192.82249230885495 300.24156119691605, 201.99898497154427 289.23283094347494 M193.03202424862212 306.4330109987652 C196.40744919155003 304.43368518406857, 199.30631047950317 303.2471761384833, 202.60562607978196 299.7859251240089 M194.78181370769417 307.0199898658564 C196.54109840047948 305.0279173731457, 197.34310823129775 303.1961050431609, 200.63551802427233 298.44997761881046" stroke="#8b3a2e" stroke-width="1.4" fill="none"/>
<path d="M171.63422019613142 290.6266168704629 C175.41931067150307 286.63265263918316, 184.44417012880834 287.9126178014604, 199.36509941597197 289.76802602916956 M170.0630720650887 286.7351833073795 C182.07480467351047 287.0429178258153, 191.79239741987166 289.20684645378316, 200.42374385599706 286.5937904803455 M197.5923197775251 288.06609856043013 C198.00047331784387 293.9474295678959, 200.06216563890595 301.4353905573562, 201.40109132078948 304.7152634757534 M199.05593816155482 288.87511405886335 C200.9665138660619 294.4483533787988, 198.52880657386277 299.4648103615455, 200.23135766679334 305.7550514280908 M197.52185462494108 306.4387181773782 C187.6412730706878 307.25071533264247, 181.46090971711806 306.72841914238063, 171.38453800809737 304.15771827846766 M199.06711651091192 305.7752158753574 C194.20984918066685 304.6135117798671, 186.69149862898627 307.355939248167, 171.11445544121023 305.0021320693195 M170.66347607776132 305.6612790266052 C170.15934590018404 303.10263533460346, 167.65743301189553 294.68073148787767, 168.64419761797393 288.5327466305271 M171.3476470519228 307.3263727752082 C171.44476435847068 300.1247702295743, 171.50993425590778 294.59815463386104, 171.05469031357 289.27665574837846" stroke="#8b3a2e" stroke-width="1.6" fill="none"/>
<path d="M217.75401323070272 243.6162085350103 C217.75401323070272 243.6162085350103, 217.75401323070272 243.6162085350103, 217.75401323070272 243.6162085350103 M217.75401323070272 243.6162085350103 C217.75401323070272 243.6162085350103, 217.75401323070272 243.6162085350103, 217.75401323070272 243.6162085350103 M216.8375689642293 253.11518003693467 C222.13408212654537 250.22141357182753, 222.4937800510807 247.10065016049975, 226.1694574504127 244.76302284317455 M217.65949409986135 253.56340213140624 C220.9607925587994 248.49960567625968, 224.3128585603609 245.39735583602823, 227.00650023801396 243.70542314262957 M220.54946305792757 261.5550374062623 C220.26041671969892 259.8566925510191, 227.22200798693808 255.4565526324962, 236.97108351122424 244.47358694558977 M217.35986511645817 262.47280473680075 C221.24472882904757 257.05939988931, 226.64737747565204 251.90492129255264, 234.60948487846017 241.74598479110762 M218.31631031680132 271.1192289408656 C225.4705525311337 264.1066868539049, 229.72409382785693 258.95081876931886, 240.1955895650666 242.1242946378201 M218.83372081165413 269.0412259809101 C222.45072023549292 264.5157989623049, 229.18129414105763 257.551760441391, 241.01085610766893 241.85557259491307 M216.21467021758178 280.9301579556325 C229.88113534461033 265.9455271383361, 242.00015211809574 253.3550050821248, 250.27131217127828 242.2292997322337 M218.58647808384592 278.467670391676 C227.69431514283397 271.9527014169226, 234.6129929697162 259.49265606008174, 247.65846771203144 243.6144074278244 M219.34760062159714 290.69384862048486 C226.80433010220634 281.29120289035336, 229.94212471950823 275.9235191447825, 250.5034142137824 254.10715188848008 M217.11421542424452 287.9569872122624 C228.3328004814653 277.6267420626609, 241.09605404716905 265.45482942507084, 249.28614773660362 253.4370319914833 M220.32304220267548 298.3145672928445 C229.43112404358124 287.8527487601268, 238.9020318371617 280.3971341947467, 246.01043099780264 265.39449176903065 M217.15275741781085 298.4977170920834 C224.58898097941514 289.5383015055667, 232.7006914039494 279.22496904556374, 250.12908492899197 263.9384042091034 M221.1911274761354 306.35886293741066 C223.88938706499624 297.61512689218165, 229.30941560526662 288.9190579553248, 249.01163132216706 270.4155076063073 M217.4431087722463 306.7480075065804 C226.23314801569137 297.7224032500849, 232.04589960314664 291.2682050428635, 249.53931481165736 272.2252287925987 M226.97390303071018 308.2366404843773 C234.55227679410157 297.1716121459613, 239.99603558000862 286.3790522912677, 247.3249167982039 281.09887982023196 M227.58930154991697 308.13856111543953 C234.11206042851097 299.7716832979256, 240.63194283994403 288.2589321367875, 248.31174400081085 282.2347768601334 M235.92086768782283 305.30648865589416 C243.03703928776528 299.4284613834424, 246.32484844472486 296.9830849678891, 246.64807184974126 289.1965310182264 M236.1420583271287 305.39983858905276 C239.48190444732998 301.46846859794346, 244.19960509215542 295.00598682626185, 249.29352520641334 289.87551093612143 M241.556260870944 307.08981376766354 C245.48373347230503 304.82035654623263, 247.82043702503353 300.31866908737777, 249.15981534435105 298.64691776948354 M242.1943359825874 306.0135279067665 C245.04600903485883 304.2076488280034, 247.03322832849992 301.8853665441981, 248.10385367793188 299.62131804969005" stroke="#8b3a2e" stroke-width="1.4" fill="none"/>
<path d="M217.56717419123606 244.35244397927076 C225.58687156426447 241.1520533367281, 228.25130904196817 244.09201414428998, 248.82176625473315 242.63652928281576 M218.237132543813 243.91208122080192 C229.5118023165228 242.39601049521875, 242.33056474441443 243.70543020168256, 248.70024124976138 244.50301429038868 M250.2808014128905 243.7226486961916 C250.16589702563357 264.3507354438584, 247.5016315420158 289.99382634954526, 248.30768879992777 306.2637083726004 M248.55394319888094 244.54980024104938 C248.89903034369522 257.2355149797853, 247.7167051444488 270.7229241116792, 247.0281315415714 304.7552902526222 M249.7481158648234 303.11855794955045 C239.37099102805314 303.95450916098747, 228.65661166705192 308.6169259469429, 218.78628172969775 306.5524330632761 M246.7990354865406 307.05961785977706 C235.02843326942667 305.95988163470344, 223.63911242819773 305.2951125365408, 218.66993884194972 306.5648985779844 M220.26596202945666 308.2001827256754 C216.31494193162501 279.47561201177723, 216.92709131922305 260.6474541473053, 219.9834221551414 245.0579096536711 M217.936535993706 307.4760110056959 C217.13063256900955 289.0094798579682, 217.96236739020992 271.51868485144524, 217.9441153352368 244.67840603893623" stroke="#8b3a2e" stroke-width="1.6" fill="none"/>
<path d="M265.8202151068183 236.374039609209 C265.8202151068183 236.374039609209, 265.8202151068183 236.374039609209, 265.8202151068183 236.374039609209 M265.8202151068183 236.374039609209 C265.8202151068183 236.374039609209, 265.8202151068183 236.374039609209, 265.8202151068183 236.374039609209 M267.0819172879122 245.28018163078525 C267.30878284121025 243.7151733968557, 269.77790749186175 239.31941396311612, 272.97833959406165 235.32014600055905 M266.024917427022 245.63989659947404 C267.5056126279834 242.40119735562016, 270.34403644466164 241.82944975216571, 273.3368450172424 237.33542835897447 M268.5449061541003 254.09589983629155 C272.0124248736061 250.09863208026206, 275.08085961498296 246.54292105968105, 282.3749936915663 235.12906931613836 M264.8342417746899 254.61564131466764 C270.66535255870235 247.7632843502782, 279.0513232790921 240.8285505810803, 282.25099521071735 237.59840025560263 M264.0707537441374 262.36507695968385 C275.7669578585729 255.53115507667667, 279.5428093013169 243.9282107654469, 287.75682790402567 239.1673216105244 M264.14565429397385 262.88951811528887 C272.9913395555727 256.1470315872325, 281.51944945258504 247.5350090134162, 289.4960129513616 236.36874156284992 M268.4093931585154 272.90840683881345 C275.7173348678832 262.2802172873679, 285.71972193758086 254.47518060031737, 298.82402040011664 236.51538106508926 M265.5447352321422 272.00564287886175 C274.1014719427368 263.5732550940571, 284.80744229177384 249.60717469155682, 296.08752655650903 239.22105628241226 M263.8975553542654 280.06591632914916 C275.7242291447972 268.55158983305864, 290.67385473152996 251.73639785146236, 297.0890399719653 245.3552922125294 M265.2493495794292 282.524959208902 C272.5271765475742 273.4166833778444, 280.26393281668226 264.28851603880696, 295.23652166398887 246.444047882533 M265.65517441341876 292.1756791611596 C271.49439960803625 284.0031815948552, 281.31386274034554 269.96233653423155, 295.4372981454985 258.20574527586314 M265.63263576356917 290.21251227142506 C273.6305237917662 282.7844727659296, 279.9583181665253 272.7801333719367, 297.1802469579311 257.0878702092773 M265.89788754300673 300.26131594031364 C271.7818340979436 292.6003677542662, 277.27488085010435 286.213518824644, 297.4457602527476 264.76028273555914 M265.5667556497966 300.19369879494667 C275.98080428367655 288.52352880490116, 286.66790415196346 276.4552830971733, 295.5320752410702 265.27108405366073 M270.21771216203194 310.45536540641166 C277.99040839821726 295.1670876426391, 286.20064650174226 284.8891895101494, 296.9120947507437 272.2729939470862 M267.73482162781727 308.84638832981415 C277.5413236716367 297.4429393626439, 288.00974404227475 285.2428200911622, 294.8419027536403 275.03510176919895 M278.55160493045935 305.932074853363 C283.0705774407475 299.19716305270435, 284.24065044419905 297.8026739008578, 294.8232322505087 285.4913055606903 M275.6307056407992 308.2024636679837 C284.4615334086441 298.63466342433986, 293.2251426396444 287.45297592845344, 295.59595820236655 283.7457276916848 M281.0606631114246 310.19851089408695 C286.31657268098934 303.81969116644507, 289.2949687961424 299.7148792240885, 295.0436294010927 290.3623198422858 M284.4694905475812 307.7076816079214 C287.6743729634457 302.8973303788588, 289.49826319142426 299.17585892906936, 296.93631664450214 293.2682464600795 M292.4638761737032 308.21522281602677 C293.3083755572382 307.3557126362432, 293.9511083199163 304.8757654877564, 295.78885056188494 301.81313088627314 M291.29931439427867 307.65356821366305 C292.3510907204801 305.75549748010025, 294.7671219174973 303.7000321242268, 296.7396028011867 301.57447422349605" stroke="#8b3a2e" stroke-width="1.4" fill="none"/>
<path d="M263.50012818634076 236.0382710880786 C269.7544324570259 239.63145403427302, 278.0584479551281 238.23141048711955, 292.2784330934944 239.46503253646193 M266.41119302253736 236.04897913422434 C271.0405646654175 235.7091031646221, 278.052261480722 236.16401394958189, 293.9767386435258 237.37223810043184 M297.23291660255813 237.338498551324 C297.22395149322085 260.06797306630386, 295.59698984475665 291.03634109019487, 295.0405692548218 307.959675969556 M295.14751858699196 235.09088915672152 C294.52850328832176 256.8905696678795, 294.8814752891591 274.91435506032406, 293.7855056344258 306.7836558362469 M295.9743771047058 305.7983977217227 C285.1007089854186 306.65830298933247, 275.85231361698584 304.50543275150517, 266.1880254512982 308.94714784808457 M294.53095446216935 305.34401984419674 C284.7552526523042 305.5469809013045, 275.4031968156446 307.4750152366793, 266.22542224268926 305.12766508664936 M263.83211467325253 304.777980806306 C263.17751276365414 285.46325902717933, 267.1910120832075 268.4778848585263, 265.5181814795689 239.48878850407897 M264.41053018908514 307.47334556188434 C265.7407210327492 290.1923779039197, 267.3315375007496 272.99556151396035, 264.75228501300825 237.90045115437357" stroke="#8b3a2e" stroke-width="1.6" fill="none"/>
<path d="M313.53703224969087 293.75379184249584 C313.53703224969087 293.75379184249584, 313.53703224969087 293.75379184249584, 313.53703224969087 293.75379184249584 M313.53703224969087 293.75379184249584 C313.53703224969087 293.75379184249584, 313.53703224969087 293.75379184249584, 313.53703224969087 293.75379184249584 M313.3113202210538 302.08861594267944 C316.0759622547426 301.9604222701459, 317.08218270262836 296.04960809004615, 320.0901139230296 293.4782282456979 M314.0386203740745 302.39430240823714 C315.9075736503718 300.9105283295104, 318.26474818263324 297.21934536720363, 321.8344698885284 293.0850388399549 M316.60783523003977 304.80398929706683 C321.80874858113276 300.4628920245682, 325.3652900471218 298.9653146311773, 328.2992900345785 295.3372914900727 M318.0224505761586 307.3013617980378 C320.52788941921494 301.8217267089928, 324.12075081497625 298.4188373314354, 329.9901713714314 294.2703027168012 M328.6955907705669 307.97066875123915 C330.45812357750765 304.26555710000275, 332.4009970846661 300.94756943740293, 335.89233045669744 294.11049026187186 M326.00150325442297 305.6721769681715 C331.5410040789832 301.26365955665204, 334.27881470157473 296.6479166841519, 338.02281329835307 294.6477398199183 M335.9901049907205 304.50547447278433 C336.31198746012086 300.6176577077563, 341.1304512080569 299.0084328756521, 341.878467176116 295.59525194506176 M334.6243745733637 304.93249824141884 C337.59034658104395 303.0418681384825, 340.68456776281766 298.01946503160065, 343.91937407793654 296.2623097254477 M342.8158064833279 305.86120678981683 C342.9112453135144 305.63305618940876, 343.3064059259581 305.25950707969946, 343.3914845763514 305.23833714805585 M342.76265516571186 305.94395414820326 C342.99698611538673 305.55688243176655, 343.13238881996375 305.4027881510129, 343.41709606941265 305.0807187099061" stroke="#8b3a2e" stroke-width="1.4" fill="none"/>
<path d="M315.4330821814454 291.9440981968865 C319.92199334978733 295.0901253200533, 327.8655868682879 295.35007741818447, 341.7350999322556 294.51353579010816 M314.58525350126166 295.4058770476468 C321.4775623084298 295.0014664222608, 328.5904288052647 294.6018682857166, 342.2532360372901 294.46146191047507 M343.64007254116274 294.718340347061 C343.1396382864549 300.10956043723786, 342.7870229140952 305.1795246775765, 342.19794645582175 304.59807485277395 M342.1785977265233 293.32956288729144 C343.28860378898815 298.73736559723227, 342.62378877113895 302.7377844980834, 343.2560656063253 305.88758880908324 M342.2006383445881 308.478237493895 C330.83042694278396 309.3620968176775, 323.0480155669197 306.3939395560675, 313.58976917289857 305.341862632893 M342.262873437798 306.6284218286164 C331.48207203518166 306.8933507561408, 324.1672812030914 305.41418852505313, 313.78090564342875 306.6904315953143 M313.35403444383024 306.8107557743881 C314.9684701143844 301.02683239005324, 312.2265499667866 299.28675386388784, 311.9515291890251 292.9036010779832 M313.6448161701449 306.8794667106075 C312.6170753678138 304.3144977104431, 312.2283144404645 301.26668341437266, 314.0490224933215 294.818892769347" stroke="#8b3a2e" stroke-width="1.6" fill="none"/>
<path d="M360.96966843218684 243.5604568745336 C360.96966843218684 243.5604568745336, 360.96966843218684 243.5604568745336, 360.96966843218684 243.5604568745336 M360.96966843218684 243.5604568745336 C360.96966843218684 243.5604568745336, 360.96966843218684 243.5604568745336, 360.96966843218684 243.5604568745336 M359.25654219381875 251.3239630533246 C361.33933433633075 248.70193019157577, 364.4826505814508 248.47606126511596, 370.5177072916209 244.06322328958782 M361.7681423607505 253.37562101575114 C363.6449800839513 249.7161183515405, 367.32090533179604 246.5055000303813, 368.24791379943787 243.06156211968633 M358.8649599775639 259.3389606528317 C363.84560881253856 256.74384709522957, 371.1277305021908 248.87699387053235, 379.51198168336873 242.60137001371714 M360.11216272227136 262.062650426883 C365.16518979624647 255.9549952137656, 373.36872132505243 249.0823570847558, 377.86318350634997 243.46456714107427 M361.9088082299278 271.01810895380197 C369.8538589916632 263.76133678518215, 374.13280516675854 256.48866754511886, 383.8645312420526 240.66000193219176 M361.09868888973153 270.747438340528 C365.69098689023497 265.8352688722923, 373.24932837100005 256.17852637185064, 384.4515532988557 241.8017058749824 M361.12800667150077 283.026240561657 C367.7209652373531 272.92898838382825, 373.48420419285935 261.7994861738235, 389.602545459921 246.0035892675048 M359.79041715985295 279.24292380971497 C368.3993959256645 274.2346533306655, 374.36024262989093 264.5264960556502, 389.61875284759185 245.3503995282924 M359.3266324507202 290.9713877029593 C371.82150171671447 278.9743059739709, 385.82630940655423 265.72247965017004, 389.9334000904588 254.76761839733246 M361.8487855209167 288.8222391586627 C370.21022094061385 281.2663309411349, 376.8951769309743 271.3220698542726, 389.8103781208871 256.37412520133677 M363.3046654950141 299.30452927404866 C369.7860851430676 291.40046119122576, 373.9729002976049 282.56849907909873, 387.964141043018 264.74429782623247 M360.5776191151946 299.0487290063672 C367.84353616589954 289.1033901232678, 376.25284867783097 280.1204132709688, 390.9556796179371 264.30284774632946 M364.92087045282 304.4540100014874 C370.3070230894471 298.6378753713774, 375.0913891643333 291.8527060063902, 387.9871267160363 274.3658785307672 M362.42351218096786 306.47286942704704 C370.27612137209945 294.97931541928375, 380.40424949304094 286.089485463677, 390.19070470202337 272.2788401124891 M372.02838698349 304.9034446398333 C377.8222238007031 300.5026471712627, 384.2211373713599 293.702703813453, 390.41561828694154 280.7825581572764 M369.3489183424324 306.2726721479163 C376.8007512220536 297.8566856801358, 385.09304663009425 289.4186170194054, 391.23138789041747 280.7970875438117 M378.48007694555645 303.94858621787637 C384.88873525157874 301.40449874331705, 388.31561964148614 295.54547651052394, 389.53454359619025 288.50631934276817 M378.27499779796426 307.5730527954212 C381.3532366516039 300.7721424080599, 386.5970837510909 296.5096374528692, 392.5618147384197 290.91162589996156 M384.96034250309117 305.96629664539375 C387.9885373383777 303.3183324260034, 390.8581674736512 302.78802269367225, 390.622471875747 299.5724602688856 M385.5165796724463 306.0906985880343 C387.48890961709793 304.9416293141222, 388.39443803725067 303.3968300838946, 391.17096175258354 300.12730504542657" stroke="#8b3a2e" stroke-width="1.4" fill="none"/>
<path d="M361.36603617655004 245.94992530569434 C364.08955424254873 243.88952601759823, 371.67272578144775 245.80947376101406, 391.1917667710168 241.66203904375433 M359.75931397998596 243.86277496106922 C368.91455995144213 244.6345590916642, 376.1285961298075 243.38045203361594, 390.5297334310544 243.65068572051823 M391.13714698189324 245.1101982615888 C388.5482731430454 257.8503733961284, 388.99591916488833 267.27722074136136, 388.5063301646096 305.35161116346717 M391.33466936321383 242.71306698806583 C391.3519202698184 258.39262521810826, 391.77548667082317 270.1411093056947, 390.30025382013446 304.8403870034963 M388.42689958447045 305.15807726606727 C376.5601449001493 306.0658906460225, 370.2437175168535 308.28244636062976, 360.99151289449895 307.7365774177015 M389.9947924134267 304.9128238130361 C381.2088914180591 306.4804500227418, 372.9313655905382 307.5940912251916, 361.33638904416824 305.25319810397923 M362.96441996084417 303.9335769675672 C363.0106632981356 290.40632775351406, 361.8268624815997 276.0742956720293, 362.5877001284238 242.89054620489478 M360.3585185798433 307.4680146742612 C359.9702099528637 281.9409239000827, 360.0791897144642 260.71481464751065, 361.368624368551 244.8845413852483" stroke="#8b3a2e" stroke-width="1.6" fill="none"/>
<path d="M408.7265852399495 200.27407972019066 C408.7265852399495 200.27407972019066, 408.7265852399495 200.27407972019066, 408.7265852399495 200.27407972019066 M408.7265852399495 200.27407972019066 C408.7265852399495 200.27407972019066, 408.7265852399495 200.27407972019066, 408.7265852399495 200.27407972019066 M409.12604479185063 211.06626797758906 C410.14661341475346 206.28104967723618, 411.8270254571077 204.54012600441627, 417.66958128547907 201.55517614709697 M408.02194497269335 209.46389743688448 C410.13212547322036 207.23996917972445, 411.75225976707117 204.52121849224756, 416.78563833561407 199.94504321303702 M407.2071770343742 221.0809052740965 C416.70513818394784 210.8481763169305, 420.09410334773776 209.82575199017515, 425.2626658243484 202.45793457550127 M407.9333133411406 217.4065691959854 C411.7835041473844 213.48256785103874, 416.82127441082116 208.4522805346577, 422.85146779924474 199.51806479680482 M408.01002561790153 225.4650391638558 C414.32624865332116 218.6008868703132, 423.94540552539564 211.09062285675603, 431.1164845126588 201.65882067635442 M409.7573963326889 227.79681266614233 C416.42439321353964 219.8611728318354, 422.62148607616297 211.7391070769158, 432.6274250741955 200.2706666143776 M407.66950357307195 238.20557163607353 C420.02001910227654 225.42775383057946, 429.7754423263126 212.05635039039117, 438.50202764939695 203.4907527915959 M407.0954482687868 235.98197848813632 C418.1240285034951 229.0963180276574, 424.83756961085913 217.9219262900493, 438.39458565270706 201.1581305741158 M410.2233611440261 243.54453760285918 C419.46073017313864 236.5194673384654, 427.1236694037869 224.8991541888602, 436.8657998092793 209.21684091261739 M407.330693636739 246.59129334653784 C417.87098822533966 234.5161150048698, 428.62791682602705 220.60011210324836, 439.10752600890993 212.58222328362206 M408.32751263740454 257.12143291382205 C413.1792452678607 246.5830436440867, 423.88762377907335 236.9668280786745, 437.73778215135155 220.75663352430047 M408.74821239260007 254.7193159571671 C416.7567841880365 246.0991501811224, 423.553829442178 237.22770704739608, 438.3536156075139 220.65339593773888 M408.6622864223479 263.0669643560716 C417.53457533416133 256.7530497049894, 422.68095297379074 251.94465152421816, 436.7680296072544 231.9117358512546 M409.58181496117476 264.62906206709454 C416.4167205915637 258.20680160064154, 422.7890886178573 250.17962294891035, 439.5302390920737 231.52577756478667 M406.9947339594874 273.34209007399426 C419.1834644256542 263.60715049541676, 428.4436914592278 257.2127746551332, 439.6935111711285 241.91246405558903 M410.2169762650083 273.2004198744175 C418.5631097674727 261.1579089417086, 428.31735049964664 251.44186455798663, 437.45226157489407 240.5532042243356 M410.9606436849825 279.85060789014517 C421.6341328524859 268.6067186649163, 429.7935768847273 255.9182198321745, 436.7443598996143 249.51159523691325 M407.61347460842427 282.65211334915205 C420.50966898340164 269.5266727853728, 433.09733541603043 256.7511497728319, 437.89890363702955 249.4923440072061 M406.40714518446447 292.0046478239108 C416.4869432399413 283.9932664043941, 426.6776344557848 270.5489744677904, 440.7061819408431 255.3234078521138 M409.788620851468 292.2165697518956 C420.06352540497977 279.16620257397574, 428.1098504309707 270.1094199462426, 440.3166753572754 257.45111245524566 M410.17472307707385 300.83726041240055 C413.9980861451546 291.1056859117488, 424.62151588213453 282.25953030327094, 440.7020704184745 264.9362700362457 M409.23989729394407 301.8618829547185 C418.91884345244097 289.08965611855103, 429.27111946038195 275.9919455533035, 439.74201519620533 266.1106358822202 M412.43982118940386 304.5679092291099 C418.5485836202072 299.2911927855717, 425.9327767602804 293.74156228497276, 437.5352096056395 275.4781321211953 M412.42818684935975 306.96668095982716 C422.4664138391054 295.60736120518453, 432.2955003521154 283.4533044747495, 439.7845191701145 275.9001188924771 M420.8726203235761 305.73389752570273 C422.94837035322246 304.156570736644, 430.0472076580443 298.07325461067325, 439.47088880897894 284.7291149565723 M419.5761758130007 305.0609275413464 C427.2920023968655 298.17778636651803, 431.6694068585235 293.1531369833688, 439.54957973505765 285.2188077018369 M425.46742037189915 304.24601279792694 C432.3972085920501 299.48988145364234, 435.2641841232426 295.98888187489314, 440.0534666130102 293.52245179207614 M428.16356988588603 305.7292024592388 C430.250464654678 303.33383258559337, 435.44807908099233 300.38930258673673, 437.5395987684854 293.4577287357775 M434.64989730962503 306.2092564323168 C436.86031520090046 306.5839729027884, 436.8993549521179 304.7618218870507, 437.88410403472295 303.70159372782916 M435.2509058874794 306.7443180407347 C436.80791276084557 305.3887024203328, 437.6130218959522 304.2447900156282, 438.5016347854158 303.0284604210418" stroke="#8b3a2e" stroke-width="1.4" fill="none"/>
<path d="M407.29899017165474 201.2357524145022 C414.25711513531013 198.7281973033785, 421.47986469460767 202.30814069207898, 440.648433609778 202.09054229740053 M407.9333744587103 199.59967287449166 C416.3515575944545 201.54765176106758, 423.6667634543503 199.43903578151532, 438.8062308248188 200.11990953056142 M438.08926217156085 202.3260481167212 C435.54688889890105 224.44809853610025, 437.0318387558976 246.48071051706373, 435.2392106195036 307.04757876042277 M437.9282447513248 199.854155903738 C437.0478072523411 232.1898340827748, 439.0066708534296 262.01684860748423, 437.05762791298883 306.868752587121 M440.6531608243528 307.83791703823954 C434.1980981516324 308.7696844743675, 423.25589005502275 304.17095316519203, 408.3932566160994 304.13129220250994 M437.7267113890554 306.19722579745576 C430.9357108009366 304.8268198775782, 421.69544997798505 305.5332645135655, 408.8918724449078 306.81596461264417 M406.53057260464004 306.5113750481978 C410.420770383709 271.51788310550523, 412.6383194991284 234.15254305642844, 408.12245945285133 200.92142505530268 M409.8325127752224 307.46534923044965 C408.4597742372737 270.52302324858306, 409.3278356456742 236.99009391512348, 408.17679404632247 201.70658650068566" stroke="#8b3a2e" stroke-width="1.6" fill="none"/>
<path d="M456.10707151260607 183.1607363609471 C456.10707151260607 183.1607363609471, 456.10707151260607 183.1607363609471, 456.10707151260607 183.1607363609471 M456.10707151260607 183.1607363609471 C456.10707151260607 183.1607363609471, 456.10707151260607 183.1607363609471, 456.10707151260607 183.1607363609471 M455.01911685477626 193.3816066969529 C460.15200362764716 187.89124621485007, 461.9440531368129 186.42396480313542, 464.4450247442311 181.6201627997055 M455.69931704952995 191.7252076531172 C458.1977556253928 189.1255508104732, 461.1366406348269 186.88736476414388, 463.1469323366842 183.0015581014871 M455.1729635560783 202.9958836904607 C462.66760245589563 196.203753412803, 468.3955569884231 189.75870468097577, 471.2929784592124 181.73282335216206 M455.37803342490366 201.9235217601872 C460.65254384292973 196.28996216021358, 468.9175612975986 189.19881592255348, 471.11938058602385 183.98988666741204 M453.7348124707691 212.08500316900898 C458.8698246241121 204.6660733518729, 469.4345100877918 195.97371801862337, 479.3041253061399 181.32125405517087 M455.03967324054014 211.019220786856 C466.03156797647586 200.59064847020338, 474.2770514446333 190.53202343953052, 478.7389843724102 183.4032419884266 M454.4906289685275 218.80322692536666 C461.85393114309016 210.45914145460463, 469.40788199522825 201.97082370855543, 487.0250793037667 187.15095011078643 M457.68010787160506 218.13935738143428 C467.90129412294516 209.62104946853304, 478.14557957880317 197.23574759917514, 486.79398792271604 186.13889541503863 M455.3997183312163 227.53601171763557 C468.83768603243743 219.48295291783649, 476.1587568038941 209.49415294242692, 484.0778280219841 195.08438764277886 M456.0922302464456 229.77867174928951 C464.2337398462275 218.860045377521, 473.02689799052916 210.91562879918996, 485.6843023908171 194.2086455807839 M454.28604730266983 239.6019511882493 C461.8950495238647 231.35909820130559, 466.96011206413783 221.14830115210003, 487.79105175356943 202.1872934372451 M457.8544931928804 238.0535175426209 C464.89127033102005 227.96849910380774, 472.90072344573304 219.4102778934909, 486.03118009097506 202.42226834402493 M454.6515079727316 244.83411418486395 C460.56730421528323 239.76140790432325, 471.6452691297523 231.4249274125734, 485.8285609923568 214.87591738661854 M455.98792332223746 245.9394501813502 C465.7583429009759 237.12948508238063, 473.7884865703354 226.73739725049722, 486.1494019760084 213.19103923196076 M456.76947680624573 257.3878351801359 C465.56087599702767 246.2388485885147, 469.2606159501227 237.03600309947026, 483.90709157819026 221.70598458855557 M456.8934300583452 255.73526727289936 C466.4051985517832 245.90418188478705, 475.052728324461 234.86506281577041, 487.6088227822455 221.9729355395134 M454.1223146430556 268.30321427172123 C469.97793366618316 253.555667236862, 478.09145730419795 239.53470427276704, 484.8898637259132 229.18048576571218 M456.63305563753136 264.2817586121902 C464.04329254888944 257.22111083780135, 469.9907582089451 248.56823948180502, 487.1716800585142 229.73667674910448 M453.8388666980052 276.06761718227636 C464.87156450323306 268.31410996328464, 471.67581208950486 256.11717778758043, 485.2240820253696 238.31217726574482 M456.2112251086244 273.1804561816446 C464.9900069783105 267.17585814683724, 471.78713050370834 258.4644480173089, 486.07384416614286 241.18047453065606 M455.1319625609382 281.1781752594574 C464.28127069674485 274.53882307766673, 476.6559621263271 261.9527083799061, 483.3784354414032 251.18608106130966 M455.85599633295226 284.01238415118445 C466.36134282537756 269.8708539616236, 479.58687083392937 256.91947335289547, 487.3060682789595 247.95078274158993 M457.7359161966982 292.70428547592076 C465.28653690697087 281.7754110698521, 473.04043996668344 277.064621018166, 488.2805973138576 259.52198475006304 M455.300309984343 293.55680887823166 C465.80370005237853 282.45263330985154, 475.60779073511367 271.15055473474706, 486.89523838329217 256.86104742682807 M458.34402594512926 304.85011042932246 C467.281417187999 293.3231934865915, 474.36615432939686 283.4221475247689, 485.7547253575767 269.23694155466103 M457.063239549125 301.00998890770796 C463.11053353263003 294.2216221585149, 471.3521364748675 287.7421321776749, 486.18562327796917 267.11045681879216 M457.6384877240085 304.2341112807595 C470.68707261451897 294.28093078559283, 482.9604225311755 286.0680304417423, 488.95896166240425 277.00777032276005 M459.32365452905975 306.920957910476 C469.9151483881166 296.522299540176, 479.03426566201955 283.49504528026597, 486.12012457431854 277.50269133740426 M470.23095056519855 306.5269010383338 C473.4949374765205 299.27636591993013, 480.2870836030013 293.2703273643228, 486.8229326931838 288.83355552701636 M469.7045259774943 305.48562796690317 C471.02255255523573 301.65027151154794, 477.35077291059423 297.2879050236115, 484.5215266961683 284.66467359008624 M476.84399040982305 304.89222357302367 C476.9833042281143 305.6537032776462, 482.650967558217 301.1216962286364, 488.62732932671986 295.5635134035492 M476.40731831759393 305.4936595807916 C479.5533095437246 302.2035337275453, 482.6829790367912 298.03670122674055, 486.1381273987898 295.2972502888883 M484.1004749569796 305.59668405289005 C485.48777638469653 304.8354070785643, 485.3577615413508 304.0937137313096, 486.1892288458472 303.39535963863676 M484.580293324798 305.8591170134506 C484.96616616884154 305.35347104368356, 485.5792972446256 304.7075538366017, 486.6950406219283 303.78560284941994" stroke="#8b3a2e" stroke-width="1.4" fill="none"/>
<path d="M453.2319441667594 182.26157952331008 C464.42467602807153 180.54759800092344, 465.2870036077675 185.78753703490858, 484.1051004485392 182.25904555104674 M456.1074349374346 184.0765707879141 C463.7885552374668 184.200744430471, 474.2049307788931 184.2376195294147, 487.0827282185831 182.3291333406046 M485.0413773612284 185.28189797185362 C489.23157960581887 211.98949165526406, 485.753833297969 241.83153625115008, 487.9720910743975 308.74354635737836 M484.52182013943576 182.73524481941016 C484.82208657226886 228.42787030531838, 485.3162473734411 270.0342426250279, 486.81500200584316 305.89711817074567 M486.87942206423514 304.5177568104118 C479.9278161089977 305.4734783027125, 470.4515920049566 306.0594599697543, 455.7950003376998 306.5260069873184 M485.4586303646841 307.48162778187543 C477.66253018381406 307.4139191441792, 470.4595343654318 307.71316721370397, 456.4473558456473 305.3787311213091 M456.09672524843586 303.0891731288284 C457.87414427411335 280.4226638730131, 457.4930433214881 253.8172412718609, 453.6572187772788 184.6923039057106 M456.3065069706015 307.4626837866381 C457.43769629976134 269.76763067674267, 456.0648393549619 234.59038934205472, 454.98496372409386 184.26863161612303" stroke="#8b3a2e" stroke-width="1.6" fill="none"/>
<path d="M504.0588650179805 284.47017921036786 C504.0588650179805 284.47017921036786, 504.0588650179805 284.47017921036786, 504.0588650179805 284.47017921036786 M504.0588650179805 284.47017921036786 C504.0588650179805 284.47017921036786, 504.0588650179805 284.47017921036786, 504.0588650179805 284.47017921036786 M505.08349615041976 294.11973162498106 C505.93453303211385 290.06618570427423, 509.86367833851386 287.0838495461995, 511.79177543570097 283.70793566097836 M503.94799635908447 294.2093040780142 C506.45431938185084 289.43391864988627, 510.7119551068682 287.6762972447046, 511.8795335704721 284.48085919860154 M503.71005731050036 303.33364831548926 C508.7211485755429 294.5030735567506, 516.3238006876081 289.1695070258791, 522.5824802688134 286.9399174979327 M503.3940607413847 301.8632605330534 C507.22691509445565 298.6839609393788, 512.0822461663087 293.71576926318585, 518.6464825475399 285.3939139071291 M511.27937878827856 305.09007674104436 C513.1474224606977 299.77252327450765, 521.5290037372617 292.59494648467637, 526.7509552743578 286.9158928030972 M509.14172961303325 306.6267384744519 C513.0922085104744 300.1698840294068, 519.8353258629642 295.71048329844183, 527.1097328453617 283.4680227315855 M519.69212411853 304.2388959793143 C522.6200963813234 296.89151829539685, 530.0030555975405 290.95048535334774, 536.1194381908543 289.23393363864125 M517.6451372289703 305.13475003938674 C522.3870477019774 300.18973676862737, 531.4750141424007 291.9853743840262, 532.7646974254429 286.54244646462575 M526.7512002507286 306.24175801939583 C526.2277029945358 304.14617738053323, 531.372000969264 298.60116488140955, 535.6277601263726 295.22224147650405 M525.6316996202632 305.2268248271548 C528.967720404513 301.0634332795318, 531.323993726356 297.9838955253964, 534.3090547760955 295.79627825475757 M533.2880790156854 305.93560392377805 C533.3973477625007 305.6107840465082, 533.4857938573621 305.5806198248535, 533.7151892473904 304.9935005724433 M533.1738886169467 305.7508664070479 C533.3216365199034 305.61104725041884, 533.5404704728892 305.3274844962189, 533.8084104083229 305.0221599424494" stroke="#8b3a2e" stroke-width="1.4" fill="none"/>
<path d="M505.164898161864 282.36740663211793 C508.59223692083293 287.4469986984684, 515.0941425209273 282.3469333777382, 533.5617672873003 287.50754880469293 M504.2814954161589 284.63346870133654 C514.2255528804791 284.69310768810965, 521.7430981034358 283.87547386554934, 532.3592256123474 283.6183571506478 M531.9934925508959 287.317747826986 C533.7284923908726 287.9580455978029, 531.2880499181763 294.9566836319864, 534.7049715292914 304.43951395433396 M534.1153955275466 284.6963337350823 C533.1865850807739 288.1443174222261, 535.2160430820298 294.92845843129976, 533.5723760986974 304.92548375437036 M533.1056833041174 307.1975965825841 C525.657534066363 308.1772721310576, 517.6472939548904 307.9479667743166, 503.19674405930016 308.92072177212685 M533.1905493403127 305.7660297662951 C527.3893495666915 305.76028899901553, 519.2236187528786 305.6523405020778, 504.00283924638677 306.94149762997404 M505.6628778922317 305.666971209459 C501.8470336079157 301.169811242912, 504.86728258724577 291.1666726920754, 505.19197810170624 287.5431827561185 M502.7805011659806 307.4600183428265 C504.76739672385406 300.81792920982093, 504.1536214258547 295.8020669788234, 504.79313340186525 285.9106767315604" stroke="#8b3a2e" stroke-width="1.6" fill="none"/>
<path d="M551.73136456883 291.46091300140233 C551.73136456883 291.46091300140233, 551.73136456883 291.46091300140233, 551.73136456883 291.46091300140233 M551.73136456883 291.46091300140233 C551.73136456883 291.46091300140233, 551.73136456883 291.46091300140233, 551.73136456883 291.46091300140233 M551.2685814915384 300.53914749462285 C554.6573948536233 297.92241613531195, 557.1236359572575 297.025025230877, 558.8592321726459 291.47699946386484 M551.9173817141141 300.5746914445249 C552.8570475142067 299.3655341740588, 555.0588922852301 296.29978040255935, 560.332840849735 291.64145123732953 M555.2299120561119 305.6064985605314 C560.0836119553333 304.7699881190594, 560.1064319955141 298.83297811713976, 568.2037332863063 291.1092396321926 M554.434702199408 306.68150560766304 C558.2816258607929 300.44801141499704, 564.8114729425326 295.0917291091881, 566.5902555954158 291.72762266017827 M563.1752697160848 308.8850857829531 C566.062459847905 300.76306817346506, 571.361250200329 296.0618544272119, 574.6036739235741 291.46272385778815 M563.5741185518362 307.11723633947275 C567.3263059920268 303.07792937416247, 570.631043274506 296.67935139967653, 575.8222351955246 291.48388218532295 M571.8207427989622 308.5352520280805 C574.736712356491 305.14754470189655, 574.688191908755 298.4037530074413, 579.3423462073055 291.391710479868 M570.7298080190948 305.5224930425462 C572.6319050948867 304.6264338873922, 576.6928519973972 301.3571690867454, 581.4857145799991 292.7764287754273 M578.118253691629 307.30253460675203 C578.9515182866495 306.1707890664793, 580.9307877012527 304.34685405980645, 582.0412329386398 303.5332771671784 M578.5839713816945 306.71115175865316 C579.4480175674945 305.7237725435466, 580.2710583847024 304.8131981874196, 581.3752256154493 302.69377943517986" stroke="#8b3a2e" stroke-width="1.4" fill="none"/>
<path d="M551.0978521569687 293.8332337409258 C558.7597978135943 292.4656699842486, 564.9012814340872 289.02560030880306, 583.0184341260615 292.1160520583391 M552.4555558948832 290.55036661475896 C561.6625505234914 291.78620035751305, 572.2812654279785 293.1140576134487, 580.6357230061117 290.26758096069096 M579.5495507109734 289.5647223427147 C580.5005302680033 297.5107572821527, 579.4972861421603 299.4380863957852, 581.331505345163 306.096869309172 M580.8103553811658 291.92695719528945 C582.0115007071915 295.09183147344737, 580.2703006761494 299.5140817357972, 580.53921256343 306.6820022766665 M579.3319445439997 303.87743635475636 C571.3872520237284 304.8810659594026, 564.8429959048243 303.8364735788789, 550.5984877809005 305.3154365569353 M580.9224683159414 307.0504317507148 C574.1161689495689 305.3473882656166, 567.9877031403254 307.8322432022163, 551.5583226471263 305.504264138639 M549.8829627156126 307.60501004241405 C549.379576925272 302.0960128522664, 549.6810201468411 295.81978932850063, 550.9538231420386 290.30865404866637 M552.046170065725 307.0420073227957 C551.9006947573232 303.4261916703358, 552.0045887967157 300.3356450684741, 551.5791375842931 292.56709612060337" stroke="#8b3a2e" stroke-width="1.6" fill="none"/>
<path d="M599.0502614593033 212.0184201216424 C599.0502614593033 212.0184201216424, 599.0502614593033 212.0184201216424, 599.0502614593033 212.0184201216424 M599.0502614593033 212.0184201216424 C599.0502614593033 212.0184201216424, 599.0502614593033 212.0184201216424, 599.0502614593033 212.0184201216424 M600.7000641722808 220.52533669347034 C599.4266540147564 219.0147661449442, 604.0299909156249 216.60232049414924, 605.5730862492146 212.81283659595707 M599.5331644087674 220.50685214024128 C600.4807146557636 218.9219662842911, 604.0013101423701 216.33677715393935, 606.6325454686219 212.3688166052633 M599.8720542499184 228.9385327779793 C603.3837725460329 224.95260356670164, 606.2017079048637 218.75716372202533, 614.2174704055606 214.01933226123867 M598.5139248049206 229.67209329121866 C601.7311910602045 226.3631529168921, 606.5784381919894 221.25648410791058, 614.7566729881173 210.86719485832793 M597.7109041580993 240.14260902289453 C603.4718674622854 232.68801728615986, 607.8925802661066 228.07370736630665, 622.7006017283392 208.77039677071454 M597.6882350928213 240.88415898742306 C606.5110974612087 229.2365596952166, 618.432457095925 216.6599617628455, 621.9072163088102 212.26281068966793 M599.7875591966502 249.05803537234038 C606.3663775258617 238.3964771575293, 619.8179272220947 230.17549230718345, 627.3959653956036 212.32925590678394 M599.2676407218158 247.0733366404225 C607.7552055708021 239.83533149110323, 617.249248618107 226.96311420517145, 629.7939258614707 215.27890377623305 M601.7623439345432 255.97227664105935 C606.8859098341094 250.83525223504424, 613.1813752279916 239.74099178222156, 630.5474667018548 223.14887041235775 M598.2103941173216 258.80264953663914 C609.7689359750822 244.73452884247993, 621.7422688836521 231.81821495792093, 630.2481855782949 221.54975505136386 M596.9952053402217 269.50534859062543 C609.827957218326 251.7407884020264, 621.9988149124935 238.80291876339138, 630.784414601979 228.94111575517334 M598.0068896354774 267.51796487807667 C608.212084983746 256.03838845095805, 616.8587616801733 245.4198330108696, 630.8974275831144 233.19072814197742 M597.4527266656389 278.59740625033555 C606.499044900405 268.7133129934001, 611.3717716393934 261.79258556871446, 631.8437091894202 240.23030457180488 M600.0398024471817 275.3324571032117 C610.9553175312271 263.30270624474207, 623.9230450630719 249.75921901045152, 630.8404446695686 240.64866681257757 M600.8954364752482 283.7227843369866 C607.8705825878413 271.4927346234251, 624.3758893404256 259.5523764802821, 627.3813868411316 249.54838876654918 M597.7245225670832 283.5375233067708 C608.5523048649144 273.3350426105131, 616.2518439888606 265.0489672287284, 627.9120604460559 251.69397206414084 M596.4090586460024 295.8587472548754 C610.54344429699 285.59460889401413, 617.7960677335908 269.31034026036633, 628.159929246566 256.6489999312032 M598.4935298535802 295.36840823973057 C605.1917990078714 285.7342582168499, 611.5438133569702 279.4212459053006, 627.8235633647244 258.93151755389385 M596.9357623673548 302.4542390957989 C607.7791003065291 293.2635202963227, 610.4597600707983 289.86533926526755, 631.5795134076766 267.4761993450637 M599.2807690088209 302.2698293093175 C609.7264711424749 291.5158824277485, 618.8474762995187 278.95393351673573, 630.1470817214727 269.5662745953131 M602.709943402173 307.606247417049 C613.5645879023241 294.6124789832509, 622.8039267164896 286.4570859837535, 630.2092616389167 278.1332279749276 M605.4105558396187 306.86921535700327 C610.6749096192593 297.9581845444276, 618.9040351686697 291.20718188315124, 627.7999586559494 276.66893715812506 M612.0440573909672 304.14158316675923 C618.4373834133239 301.5581130659213, 621.8263304212722 294.5632701793258, 629.3184915672393 285.8512564750919 M611.3365355616787 306.35536158385105 C616.5960642060087 301.0422756973667, 619.4111089520991 297.2498459900047, 629.0291271515528 285.94154686830655 M620.6175914653944 306.7238725153916 C622.791994436033 304.1401498504396, 626.608305867046 300.69495086912775, 630.5830319902474 296.762173941226 M619.8156136314054 305.8518480286887 C624.1200038806901 301.8576094578133, 625.9999226498038 298.5043419505778, 629.5999192774143 296.1284127747009 M628.4275077954784 306.4140246659203 C628.714713656457 306.11585924321673, 628.7852737399037 305.9163619931865, 629.0245701127975 305.72904599784647 M628.288750065785 306.3896546398674 C628.603643260569 306.08584410786466, 628.785674231378 305.77864502457135, 629.0504264324495 305.68945191659276" stroke="#8b3a2e" stroke-width="1.4" fill="none"/>
<path d="M597.0308061520733 212.45906084973365 C602.9273587063557 211.88507068179356, 608.7084203472469 210.10499665163266, 626.4751009648227 209.8845553119853 M600.6296163736075 212.6272645281814 C609.0995481665037 212.03929302691643, 619.8194327525213 212.51264136134807, 628.912220399876 213.07680477073416 M625.897722930231 209.2694475372508 C627.0317557870848 241.2559726316966, 626.6659209846956 268.04861669129133, 628.1707324390792 307.83144914824516 M627.3025463037685 212.4985115664266 C627.6018021016182 245.0869458709061, 626.7018545030417 280.85635847357287, 630.0871242844061 305.98221492161974 M631.558205783882 306.5572761269286 C623.1169699810938 307.5848597877476, 612.0386978547581 305.72498038344116, 598.0002315025009 307.71015134174377 M628.6543872915701 305.33483373513445 C617.9347530383287 306.6937581204529, 604.9353169395368 305.7714164905901, 599.1138060478658 307.0670306473039 M598.7951831798233 304.8225673707202 C600.6530863454586 277.0719078546874, 598.4760351886994 252.68113927645982, 596.2614967505612 211.12494045693427 M598.7284895567387 307.4546874552034 C599.4819997181065 271.1799865081534, 597.3863877137072 234.7483427167125, 598.409472757408 213.0747669624351" stroke="#8b3a2e" stroke-width="1.6" fill="none"/>
<path d="M647.1037440117512 274.9908831039497 C647.1037440117512 274.9908831039497, 647.1037440117512 274.9908831039497, 647.1037440117512 274.9908831039497 M647.1037440117512 274.9908831039497 C647.1037440117512 274.9908831039497, 647.1037440117512 274.9908831039497, 647.1037440117512 274.9908831039497 M647.2661325149977 282.926481754385 C650.1050405074415 281.04142277472016, 651.2200148751215 278.90261938503045, 656.6215259877579 276.5636295901165 M647.8835327653953 284.6539686980248 C649.2193410877273 280.89335425659067, 652.2586872899171 276.9887297673866, 655.4668357494833 275.5111378352642 M648.5108370514138 290.9393175358944 C650.4032874073697 290.83458005986614, 655.1773866026937 285.65690620788956, 665.6086612622349 274.88944653989586 M646.631641168475 294.2748521969714 C651.6326588829317 286.73999473644784, 659.2888728369861 280.05364352800245, 662.3854639967068 273.93424223093155 M644.1086872907581 300.8483793695986 C654.2641071533396 292.753184799198, 664.0475647380545 287.87535760762984, 670.2491207436304 276.0280556515274 M646.6435082804637 301.19237344968764 C652.724442562058 295.07140901599803, 658.4619653644559 286.5772409517743, 670.3796538288351 273.9906115657133 M648.5937989298781 308.23207784273893 C661.7634805918962 294.315644614149, 672.6305429190857 284.51614336682405, 677.2480723587552 275.32054998730257 M648.8374146624063 307.8071027148259 C660.6523355448496 299.23956826759843, 670.4062134264469 285.46808659627, 676.5223834402615 276.590765378484 M657.4525828363824 308.7289133940451 C664.1009414446542 300.48715445094797, 667.5739395409067 299.8780097070491, 677.7764321653603 283.8569330642929 M657.4858124416771 307.75519057760016 C663.4678869938446 301.1702095072417, 670.5488904988018 294.59440363754743, 676.8418992110028 287.01669327029936 M667.1807492135091 305.96708635558025 C671.129209780134 305.0295985010447, 676.616732931761 299.50787862002375, 675.1245177139702 296.9746084555519 M665.5242366007528 307.64675599421025 C668.1861727594809 304.1396511713738, 672.4406236431008 300.1780865784157, 678.4880947901111 295.70365084768287 M674.1975258923616 309.3131339119305 C674.7481360066571 307.7513180189245, 675.0225015227949 305.95907299439267, 676.7189531737857 304.0488476460804 M673.2987146700282 308.1966206534323 C674.2932993299208 307.5480022310869, 675.4670708645095 306.47262865370624, 677.4855632674798 303.7846803578552" stroke="#8b3a2e" stroke-width="1.4" fill="none"/>
<path d="M648.9637601471779 274.3448879585415 C653.0949195991171 273.3237419675738, 658.5155592604068 273.2036635826976, 675.9317678035839 276.9130585656315 M645.8036768523318 274.96416244160383 C659.536545809516 274.3116562845551, 670.357600077064 273.93049569748274, 677.1887177936403 276.14602858077734 M678.8498381198985 273.0852973923832 C679.4731653431568 285.20244328423587, 674.1446343759212 295.3495974921286, 674.9036128939731 303.52741674520075 M676.8961216918794 276.23960048209875 C675.8229706257346 281.68769767336545, 676.4583202272418 288.7391836509481, 676.8444983772604 305.01058050524443 M677.7844670237644 303.2371158991009 C668.8466879384591 304.2886536160926, 659.234399804692 307.61348718800343, 645.4019752241013 304.1048661265522 M676.3863062671987 306.6192357195541 C664.6615724212062 305.04012797528924, 653.6994013269837 306.71058977896394, 646.6692894486052 305.62979715596884 M648.3613358236191 307.4003654513508 C647.8176154248209 292.61013964969663, 649.041914200017 285.612739546895, 647.7962560749886 275.75581930734216 M648.2024837521178 307.4520220113918 C645.324497700319 294.1733742210269, 646.9879673427197 285.84619871307166, 648.2176424351794 276.49681207787245" stroke="#8b3a2e" stroke-width="1.6" fill="none"/>
<path d="M694.2639149394604 253.71098355715955 C694.2639149394604 253.71098355715955, 694.2639149394604 253.71098355715955, 694.2639149394604 253.71098355715955 M694.2639149394604 253.71098355715955 C694.2639149394604 253.71098355715955, 694.2639149394604 253.71098355715955, 694.2639149394604 253.71098355715955 M692.8338167342354 264.82067757733057 C699.0706296772744 260.0768712277105, 698.6937056892649 256.11852491365653, 703.924728675204 251.58970632705476 M693.4856586872363 262.7335908878817 C697.1355723785327 260.2147975172996, 698.2010905640783 258.4676442571509, 702.2251523379177 253.69032918145984 M696.912367257161 273.9330301844892 C696.5613826708513 266.1906773088971, 703.442325340313 261.85743235486245, 711.4186585521516 255.99777912901 M694.5121049362812 270.8705389934038 C697.5495391261419 265.51933540105097, 702.0399918148272 260.67533500523433, 710.4330614385385 254.23950791399213 M696.2692178276689 282.54707760698244 C703.8254787050566 268.6305032405353, 713.1312464357921 257.3055998223234, 718.2164461921641 251.52393284279725 M695.3615288723581 279.493515802632 C703.6711489917126 271.1554918594912, 711.2062077855579 264.01333974236496, 719.2708977821023 252.95663075221574 M692.5703728644243 287.68201526537644 C706.4659716001192 282.90526526643623, 710.2534656982808 270.6982466313625, 726.2068676971681 254.0594815387237 M693.5775228043152 288.8167637414682 C702.6530851845562 284.41041682848464, 707.9438236154539 275.17283117733155, 725.3575293943137 253.6502644516374 M697.2556211857865 301.3838941850621 C703.460216356226 289.3029923286418, 709.2137268152392 281.30865670966284, 724.7681450331178 265.5579236069078 M694.8740302135976 299.60607565659245 C706.4585890107727 286.61429446841373, 717.7916439730739 272.4084845458803, 726.1983602479626 264.47655937991465 M695.364955605596 304.3856352934842 C708.9402817354078 292.76124844201377, 715.5853171866061 278.9093728014801, 724.6875757122682 274.47639531528966 M696.6721321708818 307.1056182029885 C706.2670913472807 295.93270947398173, 714.1375262556387 286.17188808734466, 726.0491784558901 273.40243268877657 M703.7565590491365 308.9944410992514 C710.7278009365108 302.4901351637521, 713.5055362078658 296.76585543951967, 723.7613938654787 282.8326273767599 M704.1774084520373 307.81596852305415 C710.222045998703 298.55067282556894, 720.337717115141 287.82349350061986, 723.8753923432915 280.6531498811529 M711.9551378573619 308.11107561748196 C713.8191605779168 304.23018879814055, 719.4162675094059 299.33033292235706, 727.6051695611085 291.8093895667091 M711.587645842354 307.9040191719467 C714.0537565273456 303.29847741768504, 717.5022809714415 298.16134022584725, 725.021804766612 291.2073944287233 M719.6519446360292 307.59007133200134 C721.4668630168165 305.5219244903469, 722.9105676206998 304.84688057904987, 724.7589422224055 299.6496814796564 M719.1120757433697 306.62875376850207 C720.5992990036597 304.9068462451763, 722.7889515185583 302.77687583493713, 725.622122911244 299.8447124016567" stroke="#8b3a2e" stroke-width="1.4" fill="none"/>
<path d="M694.8967141422826 250.95071506734936 C703.2624804918785 250.72314266511876, 708.3226981735667 252.26305992552716, 725.388434642345 252.6615618192777 M693.9777373310561 252.02106035502626 C701.0653081584107 252.5447489539585, 706.0792968133716 254.3090794453821, 725.4652151874046 253.93525239082052 M725.8019533095661 251.6211472475156 C724.4724257162103 270.0075582702868, 720.1811985841283 289.6478669599891, 721.636493348867 305.22338434215635 M723.4896970799904 254.7006893977709 C724.8829362788313 268.6974055065215, 724.0535830804222 285.7199208897166, 723.6018724701147 307.0389460888691 M724.0107282636467 305.9169556712732 C714.5764058958245 306.99244744443763, 706.4301017546259 303.50199399256576, 692.8037189457017 306.4995809113607 M724.1182252428274 304.9036377039738 C714.3883918040837 304.6272272418903, 702.4634857144305 305.8904924791025, 694.2247728493447 307.1925636646338 M691.927488467415 303.9781635319814 C694.6293201712143 291.3438640569188, 693.2549688783657 278.935325041756, 693.3310153994161 255.10669815775006 M694.6764779474969 307.44935656758025 C693.698370523823 288.99966666866095, 696.1209218130238 274.60986417895185, 695.0258121129508 254.6388571933098" stroke="#8b3a2e" stroke-width="1.6" fill="none"/>
<path d="M742.36238416265 229.2716952946997 C742.36238416265 229.2716952946997, 742.36238416265 229.2716952946997, 742.36238416265 229.2716952946997 M742.36238416265 229.2716952946997 C742.36238416265 229.2716952946997, 742.36238416265 229.2716952946997, 742.36238416265 229.2716952946997 M743.1499442464346 239.6646581023497 C744.2447788280923 236.72257449486557, 746.0339447902409 235.15366161245564, 750.6700805108475 228.80110180457055 M741.9359445246542 237.68408803972727 C745.312980071216 234.9833194198598, 747.6152860349952 233.85112720548554, 750.487091357209 230.1316665214014 M744.9400777004076 249.2767732778599 C748.3456581718324 245.2354975014814, 751.3334443154317 235.74668144538867, 756.8548360795676 229.4561421629 M742.0187489415868 248.81625623461207 C747.0024302028706 242.0261005253606, 754.4762049653413 235.40184495710335, 758.1068391178696 229.89480404182854 M742.0559286020789 256.59580628914205 C749.4305263708383 248.29176110425237, 753.5349792388629 241.9536904370007, 765.8099518781972 231.36984047884286 M740.7057297017518 256.1446886003521 C745.3792897648378 253.03155287353042, 752.9882595413991 246.67532568110576, 764.7883219728691 230.2726803834939 M744.7973631524318 268.4631448118988 C752.5013933429768 254.94856602471532, 766.3392126098613 240.43276270470832, 774.7918432730804 231.14844353492066 M743.5680472996854 265.1576168919954 C749.0925093315329 258.8338511689607, 758.1705402845854 248.09023047214814, 773.8188555858652 232.05979396956667 M741.8378432655287 273.5588425570677 C752.4123827458909 259.3662599346884, 769.9777241743348 245.92441607968397, 771.3860381383746 239.60894459429852 M743.0414317158562 273.9769283165733 C752.1750291353153 265.20711644693847, 761.4815868010207 254.0450518229578, 772.1810015224218 240.2864559343057 M739.4172371054324 282.55904698558624 C751.6736309778365 273.95585216868517, 765.1456023699442 258.9684321015319, 774.146710207038 250.09052948546352 M740.8721598057332 283.1327132061171 C751.4458793452964 273.01843451083386, 760.9345132223037 263.10402577694214, 773.1326078319032 249.35477935229184 M739.9668190862051 295.5109993083918 C750.8228589678882 286.6358427287773, 755.6419975996989 274.956414923627, 772.227790143133 259.98028316935313 M740.8045552997849 293.87576501765784 C751.5538444668432 285.37149540736857, 757.5941344583956 275.4235441001011, 772.9004201197781 259.5018858055563 M744.7342698719095 305.2080344864221 C750.0709422163151 292.6062901694495, 761.5467192959477 278.64093000719043, 771.2246148607222 265.7863843569048 M741.2684888034802 303.49008033322707 C750.6023245420508 293.98943078245316, 760.534546339351 285.2485582061454, 771.5842308665154 266.8106000011303 M747.6889715215607 308.79103332950046 C753.5075095484881 297.78178242306285, 759.256274208297 291.97384735212887, 771.7989275238681 278.5131055090561 M746.3471729422404 308.8318109587418 C755.767636723623 296.85698318259625, 767.5134733387827 284.14432721751035, 771.8443794275838 276.5219497710451 M750.898535257202 311.1610991381192 C758.0085177483143 302.94673358044804, 760.3451558768014 298.90162060373905, 772.9599365756235 284.28110325652176 M753.2161901295151 307.6794405657881 C758.4051524764379 302.138885424674, 764.28414270881 295.58033451008777, 772.2453110624424 285.59295649210924 M763.0906940787547 308.8785569784745 C764.9101709628908 307.9255475819161, 765.4701272754478 299.01369503145014, 772.1192008717981 292.8081023363772 M761.834025626488 307.6356976172469 C764.6380679882899 304.59952559023725, 770.7711918639576 297.703961554685, 772.3602740084816 293.0994831881861 M770.0224179986303 308.96277798101556 C770.9261284488273 307.90254675765453, 771.4955248149284 305.92703145970347, 772.5727575084002 304.3206661987031 M769.4285867647637 308.2352880105774 C770.8703493350305 306.25497407644616, 771.6615312294728 305.0194974384337, 772.8147465381579 303.37312163160243" stroke="#8b3a2e" stroke-width="1.4" fill="none"/>
<path d="M740.8296681373873 231.47654217615724 C747.4300413846399 232.04254336266374, 752.1298370867266 229.2424562683568, 768.8451014811063 232.3300650729239 M742.1517978097805 229.9979582684487 C748.5023058014232 228.69784162336188, 756.6174641379145 229.60766319328147, 770.741712581169 229.64447620086372 M772.7540684992338 228.07699710264802 C771.2437577932976 254.2252699383348, 773.9898344963692 284.8513297918439, 774.369373803761 306.91935193911195 M773.0832724681014 228.08177831344307 C770.2836197624131 257.37990330800415, 770.9895637640877 285.12623806513847, 770.3592465629691 306.0673116724938 M770.2369895035291 308.59679544344544 C760.30612385319 303.69624127278263, 753.6258037045598 305.390500797128, 740.2054626673022 308.89429569616914 M771.8501442184562 306.1880396883935 C761.1152111869612 305.9735970967266, 754.2275701018773 306.8296657674763, 741.7802562500843 305.7553301732987 M741.4936411112109 306.555961612612 C741.7138012439982 279.4504898528606, 743.740799883105 257.0037133140564, 744.8657747238436 232.37757700815797 M741.1504721428761 307.4466911237687 C742.4555765624983 284.8359717822075, 742.6372094984991 265.393554976657, 741.8339817907223 230.70090230874717" stroke="#8b3a2e" stroke-width="1.6" fill="none"/>
<path d="M789.9331946664262 274.5994089528475 C789.9331946664262 274.5994089528475, 789.9331946664262 274.5994089528475, 789.9331946664262 274.5994089528475 M789.9331946664262 274.5994089528475 C789.9331946664262 274.5994089528475, 789.9331946664262 274.5994089528475, 789.9331946664262 274.5994089528475 M789.2333405404798 284.42105383910507 C792.8659516025283 282.58513104240564, 793.1922133619112 279.50116341363565, 797.635848200719 274.90714547457054 M789.8036408326103 284.1864552733515 C793.568934454508 281.4406118186112, 795.3899911338704 277.1889842453846, 797.0387095893985 275.62923842724297 M787.0961884532313 293.63280871161544 C794.2583339823906 287.29261003445066, 799.3529636001276 278.6482228762998, 808.4194139165606 271.92679753717493 M789.6537932564694 292.77426581620523 C792.6738909931573 288.1677639751245, 796.9819044902589 283.385859219496, 805.9090171067778 274.5623925100499 M787.971039686066 299.65682731168664 C798.7464784696316 291.53140233075055, 808.373241483677 284.74625543685505, 813.5318578738073 274.2280404552735 M789.1783308407225 301.8081537384572 C796.0805767415687 295.4859972503507, 802.4870825095775 287.4817860050236, 813.4341464732128 273.6010223551571 M795.7451669529498 306.97359963724676 C801.8001938399807 298.133598695988, 806.1512677416895 289.97941851624114, 822.8491601295792 278.00440745172534 M795.2793853075661 305.2277953213482 C801.6418916149651 298.7710947664266, 809.8935088808332 288.3777956657148, 818.7525230580032 277.23632540810365 M805.0135872056676 306.4066012452256 C807.4567920184473 296.9004617623397, 813.7373515131081 290.7763025823281, 817.476272524218 283.426967502297 M800.8023550785115 306.0205912927065 C808.1959102460977 298.3933199168971, 816.4973649843581 292.1000207778847, 820.6359840774675 285.8633544093045 M810.9074227125369 305.25933599778034 C813.4055149988368 301.4199659516736, 814.7565184083217 299.4336915487929, 817.7403834043978 295.40342310108747 M809.8594243390238 306.3298481464484 C812.5552330947595 302.5819607911575, 816.3634752726725 300.23279444922616, 819.6980277839791 295.1052698712148 M817.9955730453601 306.88303437180053 C817.7139874192843 306.4094436371422, 818.7084280674657 305.7394383308543, 819.7383761116955 304.7895555068327 M817.7337664989989 306.5692349710099 C818.446622336243 306.0197374072062, 819.1219283009854 305.2419651957119, 819.4730653330171 304.52295792203466" stroke="#8b3a2e" stroke-width="1.4" fill="none"/>
<path d="M786.762622132492 275.1623692849651 C797.5976022774014 275.281214648444, 801.9369759998865 274.1411231994217, 818.3017683198675 275.1585683265701 M790.3258582885048 274.13485618187116 C795.9393034444355 274.0109342927653, 804.1556314624572 274.06624694118085, 819.0182099749334 274.5137000109069 M819.7061836889013 273.69284695778043 C818.1145767448045 289.02064234983175, 821.8979572830297 300.0501141105965, 821.102254258655 308.61531953606755 M819.6768478562124 273.62286722911523 C818.3241267817273 282.07919559454547, 820.5653679834857 290.4061442106776, 820.1166206558235 305.0956772561185 M816.4632507434114 305.2766352156177 C812.0358418105553 306.4000351011276, 800.8215056544936 307.2790076016903, 787.6072063889026 305.2890104809776 M819.5820631940849 307.47244167281315 C810.8420305698387 305.5606963633276, 802.9916544893241 306.00956846761477, 789.3357396508238 307.31809668196365 M791.0597937550067 303.1337596932426 C787.9706478193409 298.898538508974, 787.398996390403 291.75494730670005, 790.4005340482711 272.8084558585659 M790.6244663382552 307.4440256799571 C788.719873490335 298.9412756114267, 789.6605880731358 289.7152432057075, 788.6421514684937 275.92294742418454" stroke="#8b3a2e" stroke-width="1.6" fill="none"/>
<path d="M837.358333070465 238.97469919234652 C837.358333070465 238.97469919234652, 837.358333070465 238.97469919234652, 837.358333070465 238.97469919234652 M837.358333070465 238.97469919234652 C837.358333070465 238.97469919234652, 837.358333070465 238.97469919234652, 837.358333070465 238.97469919234652 M838.7710647347877 248.22502615721137 C839.3159939468044 246.01461492937327, 843.3538931729987 239.60428956170853, 844.4559437908533 240.06076572592164 M837.5256650408293 247.9363990883267 C839.7243014400532 246.6261300406371, 841.2895671654217 244.66637010109275, 845.244655721851 238.37438691443558 M835.106627106318 257.0364207267223 C841.0321930896498 248.12710877132832, 848.4672550672406 246.0584372367137, 854.4943786828072 238.69031991257833 M837.143165471615 258.7798519791497 C841.5695666686768 249.46198308014985, 849.0942567889249 242.6313794508141, 854.2215820249395 237.52284797939973 M839.740478670316 267.7654249155825 C843.3173545169528 259.09349787968176, 847.8798339494997 257.1375472800386, 861.7641507986707 241.37910743283265 M837.5052598799562 266.51919545791355 C846.8766684893639 256.7210172353848, 855.3062094635015 246.80941476473274, 862.5903579028097 238.2222313279488 M837.3624722478637 275.0975651670646 C845.762324907359 262.1654511327521, 861.3044342813121 250.3902491731097, 865.4168639153313 243.15323836965842 M837.6602248098427 274.91148445517086 C847.8518310401868 265.015970437926, 858.2681356423642 251.53212481308117, 867.1965774593946 240.70572384776904 M837.7694749734208 286.2261909829774 C848.770962347277 270.54801667492325, 859.1596010542675 260.9362914540025, 870.0768938393148 251.5378574114239 M837.143422268781 285.0360853184336 C845.6743999018255 273.35214592834586, 853.7058154769344 264.6309129209028, 866.6013535617667 249.7331198854318 M836.9132237694744 292.20448373079756 C849.691539595825 283.9652548064209, 857.4310132052003 274.3015817488579, 866.5200486870042 259.14566866815517 M838.6636387398053 294.4855165733815 C848.420644225324 281.9293636247001, 856.9172744464362 270.1208945804895, 866.7545360743559 259.0863435216663 M837.524179520484 303.7296991623334 C842.3299354999505 296.2491296260766, 852.8605986131375 283.68799064649795, 869.2717112178589 265.34775601666064 M836.1956893554218 304.1809414425261 C845.0558417080479 295.0426518356222, 851.2052182550841 284.50460311471915, 868.0616041921685 268.2715189164841 M843.7672041598522 305.19153867305704 C847.926210509304 296.5043521698842, 858.5369710968574 290.9283439086821, 870.5746339793668 276.81253519941725 M843.1048449845799 306.4517891045425 C849.9963455511125 297.48211342207225, 855.908412208564 291.1735002927251, 867.8202115857393 278.0891724080653 M850.0881752350664 306.3052930054451 C857.7981431348716 300.01522728626526, 859.5323957641915 296.0548810213772, 867.0127934809868 289.2899963432335 M848.462196797814 307.7001483976106 C856.8706894214827 299.015542479656, 860.948791799237 294.54265989825484, 866.3127905750741 285.4497250314214 M856.3060462567802 306.1763648207926 C862.2272230939432 305.66223318917304, 861.4052225100028 301.6175509656213, 867.5688781129033 295.1314220293306 M858.7806115264385 307.9164964986195 C860.9019484153572 304.2116983347737, 861.9995547871561 300.7882249314232, 866.641812064529 294.9762009486903 M865.9441335021288 306.5246697267097 C866.6665733487339 306.36559828444047, 866.5326833119722 305.90426471769746, 867.6383277460516 304.8148221578798 M866.1436245234453 306.45575969540965 C866.4026125215591 306.1576320395024, 866.6665824567262 305.8708937579502, 867.4412414776675 304.86356099335245" stroke="#8b3a2e" stroke-width="1.4" fill="none"/>
<path d="M838.6955761275966 237.72819639377298 C841.7651631701627 238.64061534598895, 851.7441149130464 239.1605195422513, 867.7584351586287 236.8670715802163 M838.4999187672291 240.1517540952936 C846.3763010874478 239.96329755040398, 854.693798787 239.16410127731552, 867.2947073686977 238.2629238209501 M866.6582988785689 238.18869681291284 C865.3971938166893 266.34772201710194, 870.2178781900681 293.43231294089554, 867.8351347135489 304.31128713302314 M866.2704232443233 238.0439561447874 C867.3291243603098 259.475839812845, 868.105662762152 279.2007542197332, 866.8739947486778 307.1240428397432 M868.6895119832938 307.95647498779 C857.7655597679206 309.1038289294726, 848.0172076044275 309.16751440625256, 835.008950110503 307.68372526578605 M867.3139821697135 305.7568436572328 C857.568849952716 306.90706621816395, 851.7557388767709 306.9487417559886, 836.8912230515633 305.8808631906286 M834.6259463988025 305.7115577738732 C838.6501714152919 285.7817135336772, 835.4798699183093 267.3764340365231, 835.9352933726985 238.11933470897378 M837.0984605336342 307.44136023614556 C836.5523953878541 293.3123188646883, 835.252191617455 277.5684102828428, 838.4503211462651 240.0249925396219" stroke="#8b3a2e" stroke-width="1.6" fill="none"/>
<text x="89.82352941176471" y="332" text-anchor="middle" font-size="12" fill="#2e2a25" opacity="0.7">05-04</text>
<text x="185.11764705882354" y="332" text-anchor="middle" font-size="12" fill="#2e2a25" opacity="0.7">05-18</text>
<text x="280.4117647058824" y="332" text-anchor="middle" font-size="12" fill="#2e2a25" opacity="0.7">06-01</text>
<text x="375.70588235294116" y="332" text-anchor="middle" font-size="12" fill="#2e2a25" opacity="0.7">06-15</text>
<text x="471" y="332" text-anchor="middle" font-size="12" fill="#2e2a25" opacity="0.7">06-29</text>
<text x="566.2941176470589" y="332" text-anchor="middle" font-size="12" fill="#2e2a25" opacity="0.7">07-13</text>
<text x="661.5882352941177" y="332" text-anchor="middle" font-size="12" fill="#2e2a25" opacity="0.7">07-27</text>
<text x="756.8823529411766" y="332" text-anchor="middle" font-size="12" fill="#2e2a25" opacity="0.7">08-10</text>
<text x="852.1764705882354" y="332" text-anchor="middle" font-size="12" fill="#2e2a25" opacity="0.7">08-24</text>
<path d="M65.8528708346933 305.04806148089466 C228.41949705686423 302.5669837540947, 389.7084263643623 303.322682365831, 876.9086079081148 306.53233260907234 M65.5219598640874 306.0445993630216 C301.8415975637734 306.66894974989816, 537.5647425342723 306.0956652824394, 876.3387235333398 305.643677845411" stroke="#2e2a25" stroke-width="2" fill="none"/>
<path d="M64.51735866994679 47.17851300163147 C61.77565567382283 100.02072241382658, 64.09592544348139 150.5511660665704, 64.91192361866858 305.3927199511717 M65.40933264687273 45.324409993144954 C64.2339961820953 127.78572016337522, 63.74163412421074 209.3624823572032, 65.03389886975228 305.03032541204016" stroke="#2e2a25" stroke-width="2" fill="none"/>
</svg>
